<mxfile host="app.diagrams.net" agent="Mozilla/5.0 (Windows NT 10.0; Win64; x64) AppleWebKit/537.36 (KHTML, like Gecko) Chrome/127.0.0.0 Safari/537.36" version="24.7.7">
  <diagram name="Página-1" id="CtRfoEVVxr6NFWVSebCa">
    <mxGraphModel dx="2200" dy="2339" grid="1" gridSize="10" guides="1" tooltips="1" connect="1" arrows="1" fold="1" page="1" pageScale="1" pageWidth="827" pageHeight="1169" math="0" shadow="0">
      <root>
        <mxCell id="0" />
        <mxCell id="1" parent="0" />
        <mxCell id="OHBNH7EBFMkL5rOJbSnA-81" style="rounded=0;orthogonalLoop=1;jettySize=auto;html=1;exitX=0;exitY=0;exitDx=0;exitDy=0;entryX=1;entryY=0.5;entryDx=0;entryDy=0;" edge="1" parent="1" source="OHBNH7EBFMkL5rOJbSnA-1" target="OHBNH7EBFMkL5rOJbSnA-80">
          <mxGeometry relative="1" as="geometry" />
        </mxCell>
        <mxCell id="OHBNH7EBFMkL5rOJbSnA-1" value="cliente avulso" style="whiteSpace=wrap;html=1;align=center;" vertex="1" parent="1">
          <mxGeometry x="420" y="380" width="100" height="40" as="geometry" />
        </mxCell>
        <mxCell id="OHBNH7EBFMkL5rOJbSnA-13" value="" style="edgeStyle=orthogonalEdgeStyle;rounded=0;orthogonalLoop=1;jettySize=auto;html=1;entryX=0;entryY=0.5;entryDx=0;entryDy=0;" edge="1" parent="1" target="OHBNH7EBFMkL5rOJbSnA-54">
          <mxGeometry relative="1" as="geometry">
            <mxPoint x="160" y="30.02857142857141" as="sourcePoint" />
            <mxPoint x="350.02857142857147" y="100" as="targetPoint" />
          </mxGeometry>
        </mxCell>
        <mxCell id="OHBNH7EBFMkL5rOJbSnA-59" style="rounded=0;orthogonalLoop=1;jettySize=auto;html=1;exitX=1;exitY=0.25;exitDx=0;exitDy=0;entryX=0;entryY=0.5;entryDx=0;entryDy=0;" edge="1" parent="1" source="OHBNH7EBFMkL5rOJbSnA-9" target="OHBNH7EBFMkL5rOJbSnA-56">
          <mxGeometry relative="1" as="geometry" />
        </mxCell>
        <mxCell id="OHBNH7EBFMkL5rOJbSnA-60" style="rounded=0;orthogonalLoop=1;jettySize=auto;html=1;exitX=1;exitY=0.75;exitDx=0;exitDy=0;entryX=0;entryY=0.5;entryDx=0;entryDy=0;" edge="1" parent="1" source="OHBNH7EBFMkL5rOJbSnA-9" target="OHBNH7EBFMkL5rOJbSnA-57">
          <mxGeometry relative="1" as="geometry" />
        </mxCell>
        <mxCell id="OHBNH7EBFMkL5rOJbSnA-65" style="rounded=0;orthogonalLoop=1;jettySize=auto;html=1;exitX=0.75;exitY=1;exitDx=0;exitDy=0;entryX=0.5;entryY=0;entryDx=0;entryDy=0;" edge="1" parent="1" source="OHBNH7EBFMkL5rOJbSnA-9" target="OHBNH7EBFMkL5rOJbSnA-64">
          <mxGeometry relative="1" as="geometry" />
        </mxCell>
        <mxCell id="OHBNH7EBFMkL5rOJbSnA-9" value="vaga" style="whiteSpace=wrap;html=1;align=center;" vertex="1" parent="1">
          <mxGeometry x="390" y="10" width="100" height="40" as="geometry" />
        </mxCell>
        <mxCell id="OHBNH7EBFMkL5rOJbSnA-10" value="" style="endArrow=none;html=1;rounded=0;exitX=1;exitY=0.5;exitDx=0;exitDy=0;entryX=0;entryY=0.5;entryDx=0;entryDy=0;" edge="1" parent="1" source="OHBNH7EBFMkL5rOJbSnA-54" target="OHBNH7EBFMkL5rOJbSnA-9">
          <mxGeometry relative="1" as="geometry">
            <mxPoint x="350" y="120" as="sourcePoint" />
            <mxPoint x="490" y="150" as="targetPoint" />
            <Array as="points" />
          </mxGeometry>
        </mxCell>
        <mxCell id="OHBNH7EBFMkL5rOJbSnA-69" style="edgeStyle=orthogonalEdgeStyle;rounded=0;orthogonalLoop=1;jettySize=auto;html=1;exitX=1;exitY=0.5;exitDx=0;exitDy=0;entryX=0;entryY=0.5;entryDx=0;entryDy=0;" edge="1" parent="1" source="OHBNH7EBFMkL5rOJbSnA-12" target="OHBNH7EBFMkL5rOJbSnA-61">
          <mxGeometry relative="1" as="geometry" />
        </mxCell>
        <mxCell id="OHBNH7EBFMkL5rOJbSnA-12" value="manobrista" style="whiteSpace=wrap;html=1;align=center;" vertex="1" parent="1">
          <mxGeometry x="150" y="195" width="100" height="40" as="geometry" />
        </mxCell>
        <mxCell id="OHBNH7EBFMkL5rOJbSnA-70" style="rounded=0;orthogonalLoop=1;jettySize=auto;html=1;exitX=0.5;exitY=1;exitDx=0;exitDy=0;entryX=0.5;entryY=0;entryDx=0;entryDy=0;" edge="1" parent="1" source="OHBNH7EBFMkL5rOJbSnA-16" target="OHBNH7EBFMkL5rOJbSnA-62">
          <mxGeometry relative="1" as="geometry" />
        </mxCell>
        <mxCell id="OHBNH7EBFMkL5rOJbSnA-72" style="rounded=0;orthogonalLoop=1;jettySize=auto;html=1;exitX=0.5;exitY=1;exitDx=0;exitDy=0;entryX=0.5;entryY=0;entryDx=0;entryDy=0;" edge="1" parent="1" source="OHBNH7EBFMkL5rOJbSnA-16" target="OHBNH7EBFMkL5rOJbSnA-71">
          <mxGeometry relative="1" as="geometry" />
        </mxCell>
        <mxCell id="OHBNH7EBFMkL5rOJbSnA-16" value="carro&lt;div&gt;&lt;br&gt;&lt;/div&gt;" style="whiteSpace=wrap;html=1;" vertex="1" parent="1">
          <mxGeometry x="490" y="200" width="100" height="30" as="geometry" />
        </mxCell>
        <mxCell id="OHBNH7EBFMkL5rOJbSnA-18" value="cor" style="ellipse;whiteSpace=wrap;html=1;align=center;spacingLeft=60;" vertex="1" parent="1">
          <mxGeometry x="610" y="170" width="30" height="10" as="geometry" />
        </mxCell>
        <mxCell id="OHBNH7EBFMkL5rOJbSnA-19" value="placa" style="ellipse;whiteSpace=wrap;html=1;align=center;spacingLeft=60;" vertex="1" parent="1">
          <mxGeometry x="630" y="210" width="30" height="10" as="geometry" />
        </mxCell>
        <mxCell id="OHBNH7EBFMkL5rOJbSnA-20" value="marca" style="ellipse;whiteSpace=wrap;html=1;align=center;spacingLeft=60;" vertex="1" parent="1">
          <mxGeometry x="600" y="240" width="20" height="10" as="geometry" />
        </mxCell>
        <mxCell id="OHBNH7EBFMkL5rOJbSnA-23" value="" style="endArrow=none;html=1;rounded=0;exitX=1;exitY=0.25;exitDx=0;exitDy=0;entryX=0;entryY=0.5;entryDx=0;entryDy=0;" edge="1" parent="1" source="OHBNH7EBFMkL5rOJbSnA-16" target="OHBNH7EBFMkL5rOJbSnA-19">
          <mxGeometry relative="1" as="geometry">
            <mxPoint x="580" y="180" as="sourcePoint" />
            <mxPoint x="660" y="170" as="targetPoint" />
            <Array as="points" />
          </mxGeometry>
        </mxCell>
        <mxCell id="OHBNH7EBFMkL5rOJbSnA-24" value="" style="endArrow=none;html=1;rounded=0;entryX=0;entryY=0.5;entryDx=0;entryDy=0;exitX=1;exitY=0.75;exitDx=0;exitDy=0;" edge="1" parent="1" source="OHBNH7EBFMkL5rOJbSnA-16" target="OHBNH7EBFMkL5rOJbSnA-20">
          <mxGeometry relative="1" as="geometry">
            <mxPoint x="530" y="240" as="sourcePoint" />
            <mxPoint x="690" y="240" as="targetPoint" />
            <Array as="points" />
          </mxGeometry>
        </mxCell>
        <mxCell id="OHBNH7EBFMkL5rOJbSnA-29" value="Empresa de estacionam&lt;span style=&quot;background-color: initial;&quot;&gt;ento&lt;/span&gt;" style="whiteSpace=wrap;html=1;align=center;" vertex="1" parent="1">
          <mxGeometry x="60" y="10" width="100" height="40" as="geometry" />
        </mxCell>
        <mxCell id="OHBNH7EBFMkL5rOJbSnA-43" style="rounded=0;orthogonalLoop=1;jettySize=auto;html=1;exitX=1;exitY=1;exitDx=0;exitDy=0;entryX=0;entryY=0;entryDx=0;entryDy=0;" edge="1" parent="1" source="OHBNH7EBFMkL5rOJbSnA-33" target="OHBNH7EBFMkL5rOJbSnA-42">
          <mxGeometry relative="1" as="geometry" />
        </mxCell>
        <mxCell id="OHBNH7EBFMkL5rOJbSnA-45" style="rounded=0;orthogonalLoop=1;jettySize=auto;html=1;exitX=1;exitY=0;exitDx=0;exitDy=0;entryX=0;entryY=1;entryDx=0;entryDy=0;" edge="1" parent="1" source="OHBNH7EBFMkL5rOJbSnA-33" target="OHBNH7EBFMkL5rOJbSnA-44">
          <mxGeometry relative="1" as="geometry" />
        </mxCell>
        <mxCell id="OHBNH7EBFMkL5rOJbSnA-47" style="rounded=0;orthogonalLoop=1;jettySize=auto;html=1;exitX=0.25;exitY=1;exitDx=0;exitDy=0;entryX=0.5;entryY=0;entryDx=0;entryDy=0;" edge="1" parent="1" source="OHBNH7EBFMkL5rOJbSnA-33" target="OHBNH7EBFMkL5rOJbSnA-46">
          <mxGeometry relative="1" as="geometry" />
        </mxCell>
        <mxCell id="OHBNH7EBFMkL5rOJbSnA-33" value="comprovante" style="whiteSpace=wrap;html=1;" vertex="1" parent="1">
          <mxGeometry x="50" y="377.5" width="120" height="60" as="geometry" />
        </mxCell>
        <mxCell id="OHBNH7EBFMkL5rOJbSnA-35" value="" style="endArrow=none;html=1;rounded=0;" edge="1" parent="1">
          <mxGeometry relative="1" as="geometry">
            <mxPoint x="170" y="387.5" as="sourcePoint" />
            <mxPoint x="230" y="372.5" as="targetPoint" />
          </mxGeometry>
        </mxCell>
        <mxCell id="OHBNH7EBFMkL5rOJbSnA-36" value="" style="endArrow=none;html=1;rounded=0;" edge="1" parent="1">
          <mxGeometry relative="1" as="geometry">
            <mxPoint x="170" y="427.5" as="sourcePoint" />
            <mxPoint x="230" y="432.5" as="targetPoint" />
          </mxGeometry>
        </mxCell>
        <mxCell id="OHBNH7EBFMkL5rOJbSnA-38" value="hora de entrada" style="ellipse;whiteSpace=wrap;html=1;align=center;spacingLeft=60;" vertex="1" parent="1">
          <mxGeometry x="230" y="367.5" width="30" height="10" as="geometry" />
        </mxCell>
        <mxCell id="OHBNH7EBFMkL5rOJbSnA-39" value="hora de saída" style="ellipse;whiteSpace=wrap;html=1;align=center;spacingLeft=60;" vertex="1" parent="1">
          <mxGeometry x="230" y="427.5" width="30" height="10" as="geometry" />
        </mxCell>
        <mxCell id="OHBNH7EBFMkL5rOJbSnA-40" value="valor estacionamento" style="ellipse;whiteSpace=wrap;html=1;align=center;spacingLeft=60;" vertex="1" parent="1">
          <mxGeometry x="130" y="492.5" width="30" height="10" as="geometry" />
        </mxCell>
        <mxCell id="OHBNH7EBFMkL5rOJbSnA-41" value="" style="endArrow=none;html=1;rounded=0;exitX=0.646;exitY=0.987;exitDx=0;exitDy=0;exitPerimeter=0;entryX=0.333;entryY=0;entryDx=0;entryDy=0;entryPerimeter=0;" edge="1" parent="1" source="OHBNH7EBFMkL5rOJbSnA-33" target="OHBNH7EBFMkL5rOJbSnA-40">
          <mxGeometry relative="1" as="geometry">
            <mxPoint x="120" y="442.5" as="sourcePoint" />
            <mxPoint x="280" y="442.5" as="targetPoint" />
          </mxGeometry>
        </mxCell>
        <mxCell id="OHBNH7EBFMkL5rOJbSnA-42" value="número da vaga" style="ellipse;whiteSpace=wrap;html=1;align=center;spacingLeft=60;" vertex="1" parent="1">
          <mxGeometry x="220" y="482.5" width="30" height="10" as="geometry" />
        </mxCell>
        <mxCell id="OHBNH7EBFMkL5rOJbSnA-44" value="valor fixo" style="ellipse;whiteSpace=wrap;html=1;align=center;spacingLeft=60;" vertex="1" parent="1">
          <mxGeometry x="190" y="332.5" width="30" height="10" as="geometry" />
        </mxCell>
        <mxCell id="OHBNH7EBFMkL5rOJbSnA-46" value="nome" style="ellipse;whiteSpace=wrap;html=1;align=center;spacingLeft=60;" vertex="1" parent="1">
          <mxGeometry x="50" y="502.5" width="30" height="10" as="geometry" />
        </mxCell>
        <mxCell id="OHBNH7EBFMkL5rOJbSnA-53" style="rounded=0;orthogonalLoop=1;jettySize=auto;html=1;exitX=1;exitY=0;exitDx=0;exitDy=0;entryX=0.333;entryY=1;entryDx=0;entryDy=0;entryPerimeter=0;" edge="1" parent="1" source="OHBNH7EBFMkL5rOJbSnA-16" target="OHBNH7EBFMkL5rOJbSnA-18">
          <mxGeometry relative="1" as="geometry">
            <mxPoint x="610" y="180" as="targetPoint" />
          </mxGeometry>
        </mxCell>
        <mxCell id="OHBNH7EBFMkL5rOJbSnA-54" value="Relationship" style="shape=rhombus;perimeter=rhombusPerimeter;whiteSpace=wrap;html=1;align=center;" vertex="1" parent="1">
          <mxGeometry x="230" y="10" width="100" height="40" as="geometry" />
        </mxCell>
        <mxCell id="OHBNH7EBFMkL5rOJbSnA-56" value="número identificador&amp;nbsp;" style="ellipse;whiteSpace=wrap;html=1;align=center;spacingLeft=70;" vertex="1" parent="1">
          <mxGeometry x="520" y="20" width="30" height="10" as="geometry" />
        </mxCell>
        <mxCell id="OHBNH7EBFMkL5rOJbSnA-57" value="status" style="ellipse;whiteSpace=wrap;html=1;align=center;spacingLeft=70;" vertex="1" parent="1">
          <mxGeometry x="530" y="50" width="30" height="10" as="geometry" />
        </mxCell>
        <mxCell id="OHBNH7EBFMkL5rOJbSnA-68" style="edgeStyle=orthogonalEdgeStyle;rounded=0;orthogonalLoop=1;jettySize=auto;html=1;exitX=1;exitY=0.5;exitDx=0;exitDy=0;entryX=0;entryY=0.5;entryDx=0;entryDy=0;" edge="1" parent="1" source="OHBNH7EBFMkL5rOJbSnA-61" target="OHBNH7EBFMkL5rOJbSnA-16">
          <mxGeometry relative="1" as="geometry" />
        </mxCell>
        <mxCell id="OHBNH7EBFMkL5rOJbSnA-61" value="manobra" style="shape=rhombus;perimeter=rhombusPerimeter;whiteSpace=wrap;html=1;align=center;" vertex="1" parent="1">
          <mxGeometry x="320" y="185" width="120" height="60" as="geometry" />
        </mxCell>
        <mxCell id="OHBNH7EBFMkL5rOJbSnA-75" style="rounded=0;orthogonalLoop=1;jettySize=auto;html=1;exitX=0.5;exitY=1;exitDx=0;exitDy=0;" edge="1" parent="1" source="OHBNH7EBFMkL5rOJbSnA-62" target="OHBNH7EBFMkL5rOJbSnA-74">
          <mxGeometry relative="1" as="geometry" />
        </mxCell>
        <mxCell id="OHBNH7EBFMkL5rOJbSnA-62" value="possui" style="shape=rhombus;perimeter=rhombusPerimeter;whiteSpace=wrap;html=1;align=center;" vertex="1" parent="1">
          <mxGeometry x="580" y="312.5" width="80" height="20" as="geometry" />
        </mxCell>
        <mxCell id="OHBNH7EBFMkL5rOJbSnA-67" style="rounded=0;orthogonalLoop=1;jettySize=auto;html=1;exitX=0.5;exitY=1;exitDx=0;exitDy=0;entryX=0.5;entryY=0;entryDx=0;entryDy=0;" edge="1" parent="1" source="OHBNH7EBFMkL5rOJbSnA-64" target="OHBNH7EBFMkL5rOJbSnA-16">
          <mxGeometry relative="1" as="geometry" />
        </mxCell>
        <mxCell id="OHBNH7EBFMkL5rOJbSnA-64" value="ocupa" style="shape=rhombus;perimeter=rhombusPerimeter;whiteSpace=wrap;html=1;align=center;" vertex="1" parent="1">
          <mxGeometry x="430" y="90" width="120" height="60" as="geometry" />
        </mxCell>
        <mxCell id="OHBNH7EBFMkL5rOJbSnA-73" style="rounded=0;orthogonalLoop=1;jettySize=auto;html=1;exitX=0.5;exitY=1;exitDx=0;exitDy=0;entryX=0.5;entryY=0;entryDx=0;entryDy=0;" edge="1" parent="1" source="OHBNH7EBFMkL5rOJbSnA-71" target="OHBNH7EBFMkL5rOJbSnA-1">
          <mxGeometry relative="1" as="geometry" />
        </mxCell>
        <mxCell id="OHBNH7EBFMkL5rOJbSnA-71" value="possui" style="shape=rhombus;perimeter=rhombusPerimeter;whiteSpace=wrap;html=1;align=center;" vertex="1" parent="1">
          <mxGeometry x="440" y="310" width="80" height="25" as="geometry" />
        </mxCell>
        <mxCell id="OHBNH7EBFMkL5rOJbSnA-77" style="rounded=0;orthogonalLoop=1;jettySize=auto;html=1;exitX=0.5;exitY=1;exitDx=0;exitDy=0;" edge="1" parent="1" source="OHBNH7EBFMkL5rOJbSnA-74" target="OHBNH7EBFMkL5rOJbSnA-76">
          <mxGeometry relative="1" as="geometry" />
        </mxCell>
        <mxCell id="OHBNH7EBFMkL5rOJbSnA-74" value="cliente mensalista" style="whiteSpace=wrap;html=1;align=center;" vertex="1" parent="1">
          <mxGeometry x="610" y="428" width="100" height="42" as="geometry" />
        </mxCell>
        <mxCell id="OHBNH7EBFMkL5rOJbSnA-76" value="recebe" style="shape=rhombus;perimeter=rhombusPerimeter;whiteSpace=wrap;html=1;align=center;" vertex="1" parent="1">
          <mxGeometry x="475" y="530" width="105" height="35" as="geometry" />
        </mxCell>
        <mxCell id="OHBNH7EBFMkL5rOJbSnA-79" value="" style="endArrow=none;html=1;rounded=0;entryX=0;entryY=0.5;entryDx=0;entryDy=0;exitX=0.808;exitY=0.958;exitDx=0;exitDy=0;exitPerimeter=0;" edge="1" parent="1" source="OHBNH7EBFMkL5rOJbSnA-33" target="OHBNH7EBFMkL5rOJbSnA-76">
          <mxGeometry relative="1" as="geometry">
            <mxPoint x="270" y="492.5" as="sourcePoint" />
            <mxPoint x="430" y="492.5" as="targetPoint" />
            <Array as="points">
              <mxPoint x="310" y="470" />
            </Array>
          </mxGeometry>
        </mxCell>
        <mxCell id="OHBNH7EBFMkL5rOJbSnA-80" value="recebe" style="shape=rhombus;perimeter=rhombusPerimeter;whiteSpace=wrap;html=1;align=center;" vertex="1" parent="1">
          <mxGeometry x="304" y="335" width="86" height="30" as="geometry" />
        </mxCell>
        <mxCell id="OHBNH7EBFMkL5rOJbSnA-82" value="" style="endArrow=none;html=1;rounded=0;exitX=1;exitY=0;exitDx=0;exitDy=0;" edge="1" parent="1" source="OHBNH7EBFMkL5rOJbSnA-33">
          <mxGeometry relative="1" as="geometry">
            <mxPoint x="144" y="349.5" as="sourcePoint" />
            <mxPoint x="304" y="349.5" as="targetPoint" />
          </mxGeometry>
        </mxCell>
        <mxCell id="OHBNH7EBFMkL5rOJbSnA-83" value="placa" style="ellipse;whiteSpace=wrap;html=1;align=center;spacingLeft=60;" vertex="1" parent="1">
          <mxGeometry x="750" y="170" width="30" height="10" as="geometry" />
        </mxCell>
        <mxCell id="OHBNH7EBFMkL5rOJbSnA-84" value="Text" style="text;html=1;align=center;verticalAlign=middle;resizable=0;points=[];autosize=1;strokeColor=none;fillColor=none;" vertex="1" parent="1">
          <mxGeometry x="855" y="-2" width="50" height="30" as="geometry" />
        </mxCell>
      </root>
    </mxGraphModel>
  </diagram>
</mxfile>
